:FULLY-SPECIFIED
:FORCE-ALL-JOINTS-BE-3DOF
:DEGREES
136
root 7.69008 16.6804 -26.3289 -11.2728 8.95632 2.50412
lfemur -3.79751 11.8747 -20.8219
ltibia 31.6259 -0 0
lfoot -16.0041 -10.5732 -0.0578652
ltoes 31.4049 -0 0
rfemur -86.6421 -26.4499 39.7724
rtibia 54.71 -0 0
rfoot -0.228923 24.55 0.0923312
rtoes -39.7609 0 0
lowerback 17.3393 -2.2502 -5.869
upperback 5.83381 -3.85258 0.379101
thorax -3.13091 -1.9345 4.37524
lowerneck -13.2963 -1.26329 0.715158
upperneck 1.40221 -1.8822 1.85935
head 2.77791 -0.859001 0.356386
lclavicle 3.53695e-14 1.32902e-14 0
lhumerus -42.7609 -16.8161 95.5491
lradius 53.5244 -0 0
lwrist 13.6218 0 0
lhand 8.37801 6.3362 -0.0496801
lfingers 7.12502 0 0
lthumb 35.266 35.1105 -0.0357675
rclavicle 3.53695e-14 1.32902e-14 0
rhumerus -44.619 -11.4153 -58.0048
rradius 73.8815 -0 0
rwrist -10.6454 0 0
rhand 8.96823 -21.6639 1.09147
rfingers 7.12502 0 0
rthumb 35.861 -49.7866 1.06772
137
root 7.65409 16.6594 -26.3179 -10.9633 8.42857 2.4631
lfemur -3.29857 11.5001 -19.9817
ltibia 30.131 -0 0
lfoot -15.2321 -10.2094 -0.0508536
ltoes 30.4367 -0 0
rfemur -84.3431 -25.5964 38.4643
rtibia 51.8919 -0 0
rfoot -0.853112 23.4629 0.089168
rtoes -38.8317 0 0
lowerback 16.7514 -2.15179 -5.6431
upperback 5.65711 -3.69614 0.356192
thorax -3.00257 -1.85738 4.19707
lowerneck -12.7408 -1.15535 0.68414
upperneck 1.37847 -1.73023 1.75862
head 2.67272 -0.787027 0.336928
lclavicle 4.00338e-14 1.23814e-14 0
lhumerus -40.9662 -16.8095 92.9704
lradius 51.5725 -0 0
lwrist 13.0453 0 0
lhand 7.8723 5.98643 -0.0497036
lfingers 7.12502 0 0
lthumb 33.6886 33.6331 -0.0341588
rclavicle 4.00338e-14 1.23814e-14 0
rhumerus -42.7261 -11.2279 -55.5671
rradius 71.5498 -0 0
rwrist -10.3776 0 0
rhand 9.40182 -20.6318 0.981911
rfingers 7.12502 0 0
rthumb 35.2877 -47.8059 0.952916
138
root 7.6181 16.6385 -26.307 -10.6415 7.9078 2.41835
lfemur -2.81594 11.1194 -19.1284
ltibia 28.6186 -0 0
lfoot -14.4529 -9.83432 -0.0432199
ltoes 29.4414 -0 0
rfemur -81.7916 -24.7018 37.0963
rtibia 48.9887 -0 0
rfoot -1.45904 22.346 0.0835742
rtoes -37.8254 0 0
lowerback 16.147 -2.05296 -5.41243
upperback 5.47474 -3.53794 0.33299
thorax -2.87257 -1.77938 4.01528
lowerneck -12.1796 -1.05097 0.652782
upperneck 1.35381 -1.58287 1.6585
head 2.56653 -0.717372 0.317526
lclavicle 4.46982e-14 1.14727e-14 0
lhumerus -39.1315 -16.7722 90.1255
lradius 49.5407 -0 0
lwrist 12.4664 0 0
lhand 7.37491 5.64412 -0.0478255
lfingers 7.12502 0 0
lthumb 32.0887 32.1295 -0.031775
rclavicle 4.46982e-14 1.14727e-14 0
rhumerus -40.7811 -11.0068 -53.0347
rradius 69.0523 -0 0
rwrist -10.0994 0 0
rhand 9.80634 -19.5948 0.871621
rfingers 7.12502 0 0
rthumb 34.6685 -45.7638 0.833692
139
root 7.58211 16.6175 -26.296 -10.3281 7.4255 2.37458
lfemur -2.37171 10.7635 -18.3101
ltibia 27.1746 -0 0
lfoot -13.7102 -9.46601 -0.0355296
ltoes 28.4655 -0 0
rfemur -79.1471 -23.8216 35.7642
rtibia 46.1847 -0 0
rfoot -2.01898 21.263 0.075694
rtoes -36.818 0 0
lowerback 15.5642 -1.96154 -5.19313
upperback 5.29858 -3.3907 0.309153
thorax -2.74831 -1.70681 3.84074
lowerneck -11.644 -0.954791 0.621321
upperneck 1.32978 -1.44668 1.56616
head 2.46534 -0.653036 0.300095
lclavicle 4.93625e-14 1.0564e-14 0
lhumerus -37.3562 -16.7086 87.1638
lradius 47.5446 -0 0
lwrist 11.9143 0 0
lhand 6.91897 5.32872 -0.0438739
lfingers 7.12502 0 0
lthumb 30.5628 30.6837 -0.0286971
rclavicle 4.93625e-14 1.0564e-14 0
rhumerus -38.9017 -10.7729 -50.5566
rradius 66.5485 -0 0
rwrist -9.83043 0 0
rhand 10.1539 -18.6241 0.773083
rfingers 7.12502 0 0
rthumb 34.0309 -43.7916 0.723396
140
root 7.54612 16.5966 -26.285 -10.043 7.00967 2.33632
lfemur -1.98417 10.4622 -17.5713
ltibia 25.8791 -0 0
lfoot -13.0434 -9.12128 -0.0283135
ltoes 27.5549 -0 0
rfemur -76.6065 -23.0146 34.5609
rtibia 43.6583 -0 0
rfoot -2.51092 20.2721 0.0658465
rtoes -35.8866 0 0
lowerback 15.0391 -1.88471 -5.00007
upperback 5.13985 -3.26605 0.284324
thorax -2.63654 -1.64545 3.68339
lowerneck -11.1629 -0.870787 0.589972
upperneck 1.30798 -1.32727 1.48802
head 2.37476 -0.596573 0.286356
lclavicle 5.40269e-14 9.65524e-15 0
lhumerus -35.7364 -16.6338 84.2812
lradius 45.7035 -0 0
lwrist 11.4155 0 0
lhand 6.53399 5.05761 -0.0376461
lfingers 7.12502 0 0
lthumb 29.2022 29.3762 -0.0249857
rclavicle 5.40269e-14 9.65524e-15 0
rhumerus -37.2028 -10.5525 -48.2855
rradius 64.2182 -0 0
rwrist -9.58979 0 0
rhand 10.4224 -17.7845 0.698593
rfingers 7.12502 0 0
rthumb 33.405 -42.018 0.63611
141
root 7.51013 16.5756 -26.2741 -9.80488 6.68544 2.30792
lfemur -1.66835 10.244 -16.9531
ltibia 24.8064 -0 0
lfoot -12.4884 -8.81594 -0.0220635
ltoes 26.7547 -0 0
rfemur -74.397 -22.3413 33.5758
rtibia 41.5764 -0 0
rfoot -2.91771 19.4271 0.0545349
rtoes -35.1091 0 0
lowerback 14.6056 -1.82906 -4.84705
upperback 5.00922 -3.17479 0.258091
thorax -2.54348 -1.60068 3.55237
lowerneck -10.7628 -0.802359 0.558897
upperneck 1.29009 -1.22947 1.42989
head 2.29995 -0.550168 0.277882
lclavicle 5.86912e-14 8.74651e-15 0
lhumerus -34.3631 -16.5762 81.7148
lradius 44.1367 -0 0
lwrist 10.9946 0 0
lhand 6.24659 4.84651 -0.0288998
lfingers 7.12502 0 0
lthumb 28.0928 28.2829 -0.0206761
rclavicle 5.86912e-14 8.74651e-15 0
rhumerus -35.7934 -10.3756 -46.3712
rradius 62.2547 -0 0
rwrist -9.39593 0 0
rhand 10.5939 -17.1349 0.660149
rfingers 7.12502 0 0
rthumb 32.8227 -40.5666 0.586131
142
root 7.47414 16.5546 -26.2631 -9.6322 6.47623 2.29374
lfemur -1.4372 10.1374 -16.4947
ltibia 24.0258 -0 0
lfoot -12.0787 -8.56476 -0.0172324
ltoes 26.1086 -0 0
rfemur -72.7627 -21.8621 32.8952
rtibia 40.0939 -0 0
rfoot -3.22547 18.7774 0.0424345
rtoes -34.5631 0 0
lowerback 14.2962 -1.80096 -4.74721
upperback 4.91698 -3.12727 0.229936
thorax -2.475 -1.57768 3.45626
lowerneck -10.4687 -0.752542 0.528156
upperneck 1.27783 -1.1576 1.39726
head 2.24585 -0.515761 0.276189
lclavicle 6.33555e-14 7.83779e-15 0
lhumerus -33.3222 -16.5757 79.7267
lradius 42.9608 -0 0
lwrist 10.6746 0 0
lhand 6.08183 4.7102 -0.0173483
lfingers 7.12502 0 0
lthumb 27.3157 27.4759 -0.0157751
rclavicle 6.33555e-14 7.83779e-15 0
rhumerus -34.7774 -10.2743 -44.9577
rradius 60.8553 -0 0
rwrist -9.26704 0 0
rhand 10.6531 -16.7308 0.669418
rfingers 7.12502 0 0
rthumb 32.3173 -39.5558 0.587515
143
root 7.43814 16.5337 -26.2521 -9.54311 6.40556 2.29826
lfemur -1.30319 10.171 -16.2345
ltibia 23.6048 -0 0
lfoot -11.8467 -8.38175 -0.0142387
ltoes 25.6591 -0 0
rfemur -71.9493 -21.6369 32.6051
rtibia 39.3591 -0 0
rfoot -3.42136 18.3702 0.0303634
rtoes -34.3264 0 0
lowerback 14.1434 -1.8069 -4.71376
upperback 4.87338 -3.13413 0.199155
thorax -2.43684 -1.58174 3.40347
lowerneck -10.3053 -0.724297 0.49764
upperneck 1.27297 -1.11588 1.39574
head 2.21734 -0.495233 0.282855
lclavicle 6.80199e-14 6.92906e-15 0
lhumerus -32.6968 -16.6777 78.5829
lradius 42.2893 -0 0
lwrist 10.4779 0 0
lhand 6.06524 4.66364 -0.00265908
lfingers 7.12502 0 0
lthumb 26.9507 27.0253 -0.0102641
rclavicle 6.80199e-14 6.92906e-15 0
rhumerus -34.2555 -10.2808 -44.1831
rradius 60.2154 -0 0
rwrist -9.22147 0 0
rhand 10.5845 -16.6283 0.737776
rfingers 7.12502 0 0
rthumb 31.9216 -39.1019 0.653745
